# xmcd
# 
# Track frame offsets:
#     150
#     29192
#     50574
#     78116
#     104680
#     139083
#     154667
#     170319
#     189928
#     206482
#     239078
#     255070
#     286135
# 
# Disc length: 4161
# 
# Revision: 8
# Processed by: cddbd v1.5.2PL0 Copyright (c) Steve Scherf et al.
# Submitted via: fre:ac v1.0.17
# 
DISCID=ae103f0d
DTITLE=Varios Artistas - Music Box
DYEAR=1998
DGENRE=Pop
TTITLE0=Imagination - Just An Illusion
TTITLE1=Indeep - Last Night A Dj Saved My Life
TTITLE2=Real Thing - You To Me Are Everything
TTITLE3=Brian Ice - Talking To The Night
TTITLE4=Garys Gang - Keep On Dancin
TTITLE5=Shalamar - A Night To Remember
TTITLE6=Miquel Brown - So Many Men So Little Time
TTITLE7=Odyssey - Going Back To My Roots
TTITLE8=Nighthawk - Eye Of The Tiger
TTITLE9=Oliver Cheatham - Get Down Saturday Night
TTITLE10=Shannon - Let The Music Play
TTITLE11=Toney Lee - Reach Up
TTITLE12=Timex Social Club - Rumors
EXTD=YEAR: 1998
EXTT0=
EXTT1=
EXTT2=
EXTT3=
EXTT4=
EXTT5=
EXTT6=
EXTT7=
EXTT8=
EXTT9=
EXTT10=
EXTT11=
EXTT12=
PLAYORDER=
